<svg xmlns="http://www.w3.org/2000/svg" xmlns:xlink="http://www.w3.org/1999/xlink" width="500" zoomAndPan="magnify" viewBox="0 0 375 225" height="300" preserveAspectRatio="xMidYMid meet" version="1.0"><defs><g/><clipPath id="ae266e7012"><path d="M 162.78125 34.273438 L 349.53125 34.273438 L 349.53125 78.523438 L 162.78125 78.523438 Z M 162.78125 34.273438 " clip-rule="nonzero"/></clipPath><clipPath id="e7d320b7e5"><path d="M 165.320312 36.726562 L 204.316406 36.726562 L 204.316406 75.726562 L 165.320312 75.726562 Z M 165.320312 36.726562 " clip-rule="nonzero"/></clipPath><clipPath id="4e7f73b25d"><path d="M 184.820312 36.726562 C 174.050781 36.726562 165.320312 45.457031 165.320312 56.226562 C 165.320312 66.996094 174.050781 75.726562 184.820312 75.726562 C 195.589844 75.726562 204.316406 66.996094 204.316406 56.226562 C 204.316406 45.457031 195.589844 36.726562 184.820312 36.726562 Z M 184.820312 36.726562 " clip-rule="nonzero"/></clipPath></defs><g clip-path="url(#ae266e7012)"><path fill="#ffffff" d="M 162.78125 -85.839844 L 444.78125 -85.839844 L 444.78125 196.160156 L 162.78125 196.160156 Z M 162.78125 -85.839844 " fill-opacity="1" fill-rule="nonzero"/></g><g fill="#ffffff" fill-opacity="1"><g transform="translate(28.084429, 194.548092)"><g><path d="M 11.542969 -158.734375 L 60.800781 -158.734375 C 75.679688 -158.734375 87.546875 -155.5625 96.394531 -149.210938 C 105.246094 -142.863281 109.671875 -132.570312 109.671875 -118.332031 C 109.671875 -102.425781 103.066406 -91.074219 89.855469 -84.273438 C 112.429688 -80.296875 123.71875 -66.957031 123.71875 -44.253906 C 123.71875 -30.914062 119.101562 -20.203125 109.863281 -12.121094 C 100.628906 -4.039062 87.929688 0 71.769531 0 L 11.542969 0 Z M 47.71875 -96.589844 L 50.601562 -96.589844 C 58.683594 -96.589844 64.714844 -98 68.6875 -100.820312 C 72.664062 -103.644531 74.652344 -108.261719 74.652344 -114.675781 C 74.652344 -125.449219 66.636719 -130.835938 50.601562 -130.835938 L 47.71875 -130.835938 Z M 47.71875 -27.898438 L 59.070312 -27.898438 C 76.769531 -27.898438 85.621094 -33.800781 85.621094 -45.601562 C 85.621094 -52.65625 83.410156 -57.722656 78.984375 -60.800781 C 74.558594 -63.878906 67.917969 -65.417969 59.070312 -65.417969 L 47.71875 -65.417969 Z M 47.71875 -27.898438 "/></g></g></g><g fill="#ffffff" fill-opacity="1"><g transform="translate(156.215706, 194.548092)"><g><path d="M 14.816406 -153.734375 C 18.792969 -157.710938 23.539062 -159.699219 29.054688 -159.699219 C 34.570312 -159.699219 39.316406 -157.710938 43.292969 -153.734375 C 47.269531 -149.757812 49.257812 -145.011719 49.257812 -139.496094 C 49.257812 -133.980469 47.269531 -129.234375 43.292969 -125.257812 C 39.316406 -121.28125 34.570312 -119.292969 29.054688 -119.292969 C 23.539062 -119.292969 18.792969 -121.28125 14.816406 -125.257812 C 10.839844 -129.234375 8.851562 -133.980469 8.851562 -139.496094 C 8.851562 -145.011719 10.839844 -149.757812 14.816406 -153.734375 Z M 11.542969 -98.703125 L 11.542969 0 L 45.601562 0 L 45.601562 -98.703125 Z M 11.542969 -98.703125 "/></g></g></g><g fill="#ffffff" fill-opacity="1"><g transform="translate(214.317274, 194.548092)"><g><path d="M 1.539062 -126.988281 L 1.539062 -158.734375 L 113.136719 -158.734375 L 113.136719 -126.988281 L 75.421875 -126.988281 L 75.421875 0 L 39.25 0 L 39.25 -126.988281 Z M 1.539062 -126.988281 "/></g></g></g><g clip-path="url(#e7d320b7e5)"><g clip-path="url(#4e7f73b25d)"><path fill="#000000" d="M 165.320312 36.726562 L 204.316406 36.726562 L 204.316406 75.726562 L 165.320312 75.726562 Z M 165.320312 36.726562 " fill-opacity="1" fill-rule="nonzero"/></g></g></svg>